<svg xmlns="http://www.w3.org/2000/svg" width="119" height="40" fill="none" viewBox="0 0 119 40"><g clip-path="url(#hiab__a)"><!-- H --><path fill="#fff" d="M46.481 37.091V2.91h6.974v13.22h4.03V2.91h7.003v34.181h-7.002V22.347h-4.031V37.09z"/><!-- I --><path fill="#fff" d="M75.33 37.091h-7.008V2.91h7.008v34.181"/><!-- A — evenodd abre el counter triangular --><path fill="#fff" fill-rule="evenodd" d="M86.111 22.52v14.576h-6.98V10.281c0-6.442 2.853-8.011 8.998-8.011s9.02 1.575 9.02 8.01v26.81h-7.03V22.512h-4.003z M90.113 11.312c0-2.382-.566-2.848-1.99-2.848s-2.018.466-2.018 2.848v4.889h4.003v-4.889z"/><!-- B — evenodd abre los dos counters de los bulgares --><path fill="#fff" fill-rule="evenodd" d="M100.726 37.091h10.327c5.471 0 7.602-2.444 7.602-7.018v-5.024c0-3.475-1.273-5.337-4.44-5.92 3.442-1.138 4.299-3.717 4.299-6.16V9.94c0-4.575-2.304-7.02-7.602-7.02h-10.186v34.176zm6.884-14.8h1.722c1.995 0 2.304.449 2.304 4.3s-.309 4.334-2.304 4.334h-1.722v-8.64z M107.61 9.251h1.856c1.587 0 2.03.55 2.03 3.442s-.449 3.443-2.03 3.443h-1.856V9.25"/><!-- Icono cuadrado: borde blanco + fondo blanco con hueco del elefante --><rect x="0.75" y="0.75" width="38.5" height="38.5" stroke="#fff" stroke-width="1.5" fill="none"/><path fill="#fff" d="M19.997 21.579s-.039.01-.067.044c-1.065 1.06-2.321 1.666-4.16 1.666a5.235 5.235 0 0 1-5.236-5.237 5.235 5.235 0 0 1 5.236-5.236c1.245 0 2.433.432 3.358 1.155.662.572 1.542 1.929 1.794 3.123.168.69.275 1.34.348 1.973.98 5.37 2.388 8.64 6.144 11.498-1.003 2.232-1.502 4.614-1.385 6.532H2.91V2.91h34.182v8.18C33.72 13.175 29 12.553 25.423 9.58l-1.144-.84c-2.607-2.13-5.998-3.28-8.302-3.28-5.848 0-10.59 4.726-10.59 10.646s4.742 10.725 10.59 10.725c1.43 0 2.797-.197 4.042-.718V21.64s0-.05-.023-.061"/><path fill="#fff" d="M30.901 19.494a1.748 1.748 0 1 0 0-3.498c-.97 0-1.743.785-1.743 1.75 0 .963.779 1.748 1.743 1.748"/><path fill="#fff" d="M31.187 24.662c-1.054-.213-2.203-.891-3.201-1.945-1.407-1.48-2.49-3.65-2.848-6.162-.337-2.405-.359-2.646-.398-2.758a1.08 1.08 0 0 0-.976-.745c-.566-.023-.964.431-1.014 1.003a19 19 0 0 0-.029 2.876c.28 4.513 2.041 8.477 4.497 10.86.409.392.857.778 1.12.941a26.5 26.5 0 0 1 2.843-4.076"/></g><defs><clipPath id="hiab__a"><path fill="#fff" d="M0 0h118.654v40H0z"/></clipPath></defs></svg>
